<svg width="28" height="28" viewBox="0 0 28 28" fill="none" xmlns="http://www.w3.org/2000/svg">
<path d="M4.05041 15.8135L4.77085 15.605L4.77085 15.605L4.05041 15.8135ZM4.05041 8.05762L3.32997 7.84914L3.32997 7.84914L4.05041 8.05762ZM23.9496 8.05763L24.67 7.84915L24.67 7.84915L23.9496 8.05763ZM23.9496 15.8135L23.2292 15.605L23.2291 15.605L23.9496 15.8135ZM19.6172 19.8421L19.4772 19.1053L19.4772 19.1053L19.6172 19.8421ZM8.38276 19.8421L8.52285 19.1053L8.38276 19.8421ZM8.38276 4.02902L8.24266 3.29222L8.38276 4.02902ZM19.6172 4.02902L19.7573 3.29222L19.6172 4.02902ZM4.10673 16.0081L3.38628 16.2166L3.38628 16.2166L4.10673 16.0081ZM23.8933 16.0081L24.6137 16.2166L24.6137 16.2166L23.8933 16.0081ZM23.8933 7.86302L23.1728 8.07151L23.1728 8.07151L23.8933 7.86302ZM4.10673 7.86302L4.82717 8.0715L4.82717 8.0715L4.10673 7.86302ZM14.75 20.9102C14.75 20.4959 14.4142 20.1602 14 20.1602C13.5858 20.1602 13.25 20.4959 13.25 20.9102H14.75ZM13.25 24.5C13.25 24.9142 13.5858 25.25 14 25.25C14.4142 25.25 14.75 24.9142 14.75 24.5H13.25ZM10.9245 23.75C10.5103 23.75 10.1745 24.0858 10.1745 24.5C10.1745 24.9142 10.5103 25.25 10.9245 25.25V23.75ZM17.0755 25.25C17.4897 25.25 17.8255 24.9142 17.8255 24.5C17.8255 24.0858 17.4897 23.75 17.0755 23.75V25.25ZM23.1728 8.07151L23.2292 8.26612L24.67 7.84915L24.6137 7.65454L23.1728 8.07151ZM23.2291 15.605L23.1728 15.7996L24.6137 16.2166L24.67 16.022L23.2291 15.605ZM4.82717 15.7996L4.77085 15.605L3.32997 16.022L3.38628 16.2166L4.82717 15.7996ZM4.77085 8.26611L4.82717 8.0715L3.38629 7.65454L3.32997 7.84914L4.77085 8.26611ZM4.77085 15.605C4.07638 13.2052 4.07638 10.6659 4.77085 8.26611L3.32997 7.84914C2.55668 10.5214 2.55668 13.3498 3.32997 16.022L4.77085 15.605ZM23.2292 8.26611C23.9236 10.6659 23.9236 13.2052 23.2292 15.605L24.67 16.022C25.4433 13.3498 25.4433 10.5214 24.67 7.84915L23.2292 8.26611ZM19.4772 19.1053C15.86 19.7931 12.14 19.7931 8.52285 19.1053L8.24267 20.5789C12.045 21.3019 15.955 21.3019 19.7573 20.5789L19.4772 19.1053ZM8.52285 4.76582C12.14 4.07806 15.86 4.07806 19.4772 4.76582L19.7573 3.29222C15.955 2.56926 12.045 2.56926 8.24266 3.29222L8.52285 4.76582ZM8.52285 19.1053C6.73665 18.7657 5.31353 17.4803 4.82717 15.7996L3.38628 16.2166C4.03459 18.4569 5.91897 20.1371 8.24267 20.5789L8.52285 19.1053ZM19.7573 20.5789C22.081 20.1371 23.9654 18.4569 24.6137 16.2166L23.1728 15.7996C22.6865 17.4803 21.2634 18.7657 19.4772 19.1053L19.7573 20.5789ZM19.4772 4.76582C21.2634 5.10544 22.6865 6.39082 23.1728 8.07151L24.6137 7.65454C23.9654 5.41425 22.081 3.73404 19.7573 3.29222L19.4772 4.76582ZM8.24266 3.29222C5.91897 3.73404 4.03459 5.41425 3.38629 7.65454L4.82717 8.0715C5.31353 6.39082 6.73664 5.10544 8.52285 4.76582L8.24266 3.29222ZM13.25 20.9102V24.5H14.75V20.9102H13.25ZM10.9245 25.25H17.0755V23.75H10.9245V25.25Z" fill="white"/>
<path d="M9.33331 13.125L11.8683 11.1287C12.2441 10.8327 12.432 10.6847 12.6398 10.7111C12.8476 10.7375 12.9926 10.9278 13.2825 11.3083L14.7175 13.1917C15.0074 13.5722 15.1523 13.7625 15.3601 13.7889C15.5679 13.8153 15.7558 13.6673 16.1316 13.3713L18.6666 11.375" stroke="#FEA609" stroke-width="1.5" stroke-linecap="round"/>
</svg>
